<?xml version="1.0" encoding="utf-8"?>
<!-- Generator: Adobe Illustrator 26.0.3, SVG Export Plug-In . SVG Version: 6.00 Build 0)  -->
<svg version="1.1" id="圖層_1" xmlns="http://www.w3.org/2000/svg" xmlns:xlink="http://www.w3.org/1999/xlink" x="0px" y="0px"
	 viewBox="0 0 239.1 50" style="enable-background:new 0 0 239.1 50;" xml:space="preserve">
<style type="text/css">
	.st0{fill:url(#SVGID_1_);}
	.st1{fill:#F4C01F;}
	.st2{fill:url(#SVGID_00000017508046469895557040000007662141434390609806_);}
	.st3{fill:#2F6EA9;}
</style>
<g>
	
		<linearGradient id="SVGID_1_" gradientUnits="userSpaceOnUse" x1="168.3263" y1="46.5789" x2="150.9549" y2="18.7401" gradientTransform="matrix(1 0 0 -1 0 49.8898)">
		<stop  offset="0" style="stop-color:#F4C01F"/>
		<stop  offset="1" style="stop-color:#2F6EA9"/>
	</linearGradient>
	<path class="st0" d="M151.2,6.6c-0.2,2.6-0.7,5.7-2.9,8.6c-1.7,2.2-5.8,2.8-8,3.2c-4,0.5-6.9,3-6.9,6.8c0,3.2,2,5.9,5.6,6.6
		c3.4,0.7,6.2,1.3,8.3,3.2c1.9,1.7,3.1,4.2,3.9,8.8c0.7,3.9,3.2,6.2,6.7,6.2c3.7,0,6.8-3,6.7-6.8c0-3.6-2.6-6.3-6.3-6.7
		c-4.7-0.5-11.3-4.6-11.3-11s5-10.7,11.5-12c3.9-0.8,6.2-3.2,6.2-6.7c0-3.7-3-6.8-6.8-6.7C154.2,0,151.4,2.8,151.2,6.6z"/>
	<path class="st1" d="M138.5,9.3c-0.1-1.7,1.3-3.2,3-3.3c1.7-0.1,3.2,1.3,3.3,3s-1.3,3.2-3,3.3C140.1,12.4,138.6,11.1,138.5,9.3z"/>
	
		<linearGradient id="SVGID_00000065041301012302259590000008120893093513467311_" gradientUnits="userSpaceOnUse" x1="166.5069" y1="47.7143" x2="149.1355" y2="19.8755" gradientTransform="matrix(1 0 0 -1 0 49.8898)">
		<stop  offset="0" style="stop-color:#F4C01F"/>
		<stop  offset="1" style="stop-color:#2F6EA9"/>
	</linearGradient>
	<path style="fill:url(#SVGID_00000065041301012302259590000008120893093513467311_);" d="M138.6,42c-0.1-1.7,1.3-3.2,3-3.3
		s3.2,1.3,3.3,3s-1.3,3.2-3,3.3C140.1,45.1,138.7,43.8,138.6,42z"/>
</g>
<path class="st3" d="M63.1,35.6V14.4h8.6c1.6,0,3,0.3,4.4,0.8s2.5,1.3,3.6,2.3c1,1,1.8,2.1,2.4,3.4s0.9,2.7,0.9,4.2
	c0,1.5-0.3,2.8-0.9,4.1c-0.6,1.3-1.4,2.4-2.4,3.3c-1,1-2.2,1.7-3.6,2.3c-1.4,0.5-2.8,0.8-4.4,0.8H63.1z M68.3,31h3.3
	c0.8,0,1.6-0.2,2.3-0.5c0.7-0.3,1.3-0.7,1.9-1.3c0.5-0.5,1-1.2,1.3-1.9c0.3-0.7,0.5-1.5,0.5-2.3s-0.2-1.6-0.5-2.4
	c-0.3-0.7-0.7-1.4-1.3-1.9c-0.5-0.5-1.2-1-1.9-1.3c-0.7-0.3-1.5-0.5-2.3-0.5h-3.3V31z"/>
<path class="st3" d="M106.1,35.6V14.4h10.8c1.5,0,2.7,0.3,3.9,0.9c1.1,0.6,2,1.4,2.6,2.4s1,2.2,1,3.5s-0.4,2.5-1.1,3.6
	c-0.7,1-1.7,1.8-2.9,2.4l4.6,8.5h-5.8l-4-7.7h-4v7.7L106.1,35.6L106.1,35.6z M111.3,23.7h5.1c0.8,0,1.5-0.2,1.9-0.7
	c0.5-0.4,0.7-1,0.7-1.7s-0.2-1.3-0.7-1.7c-0.5-0.4-1.1-0.7-1.9-0.7h-5.1V23.7z"/>
<polygon class="st3" points="5.2,31 5.2,14.5 0,17.5 0,35.6 13.7,35.6 16.3,31 "/>
<polygon class="st3" points="91.1,31.1 91.1,27.1 96.2,27.1 98.7,22.8 91.1,22.8 91.1,18.9 100,18.9 102.6,14.5 102.6,14.4 
	85.9,14.4 85.9,35.6 100.1,35.6 102.7,31.1 "/>
<polygon class="st3" points="24.8,31.1 24.8,27.1 31.1,27.1 33.6,22.8 24.8,22.8 24.8,18.9 33.7,18.9 36.3,14.4 19.6,14.4 
	19.6,35.6 33.8,35.6 36.4,31.1 "/>
<path class="st3" d="M38.1,35.6l8.7-21.2h6l8.6,21.2h-5.6l-1.9-5.1h-8.3l-2,5.1H38.1z M47,26.4h5.1l-2.5-6.8L47,26.4z"/>
<polygon class="st1" points="190.4,35.6 190.4,14.4 186.2,16.8 186.2,22.8 175,22.8 175,14.5 170.9,16.9 170.9,35.6 175,35.6 
	175,26.5 186.2,26.5 186.2,35.6 "/>
<polygon class="st1" points="195.5,16.8 195.5,35.6 199.7,35.6 199.7,14.4 "/>
<polygon class="st1" points="227.4,32.1 227.4,14.4 223.2,16.8 223.2,35.6 237.1,35.6 239.1,32.1 "/>
<polygon class="st1" points="209,32.1 209,14.4 204.8,16.8 204.8,35.6 218.6,35.6 220.7,32.1 "/>
</svg>
